<mxfile host="app.diagrams.net">
  <diagram name="Student Query Sequence" id="KfJ1WceP9tLoUb4YHe3X">
    <mxGraphModel dx="1500" dy="800" grid="1" gridSize="10" guides="1" tooltips="1" connect="1" arrows="1" fold="1" page="1" pageScale="1" pageWidth="827" pageHeight="1169" math="0" shadow="0">
      <root>
        <mxCell id="0" />
        <mxCell id="1" parent="0" />
        <!-- Lifelines -->
        <mxCell id="2" value="Student" style="swimlane" vertex="1" parent="1">
          <mxGeometry x="20" y="60" width="100" height="600" as="geometry" />
        </mxCell>
        <mxCell id="3" value="Frontend" style="swimlane" vertex="1" parent="1">
          <mxGeometry x="140" y="60" width="100" height="600" as="geometry" />
        </mxCell>
        <mxCell id="4" value="Backend" style="swimlane" vertex="1" parent="1">
          <mxGeometry x="260" y="60" width="100" height="600" as="geometry" />
        </mxCell>
        <mxCell id="5" value="Retriever" style="swimlane" vertex="1" parent="1">
          <mxGeometry x="380" y="60" width="100" height="600" as="geometry" />
        </mxCell>
        <mxCell id="6" value="LLM API" style="swimlane" vertex="1" parent="1">
          <mxGeometry x="500" y="60" width="100" height="600" as="geometry" />
        </mxCell>
        <mxCell id="7" value="Display" style="swimlane" vertex="1" parent="1">
          <mxGeometry x="620" y="60" width="100" height="600" as="geometry" />
        </mxCell>

        <!-- Arrows -->
        <mxCell id="10" style="endArrow=block" edge="1" source="2" target="3" parent="1">
          <mxGeometry relative="1">
            <mxPoint x="140" y="100" as="targetPoint" />
          </mxGeometry>
        </mxCell>
        <mxCell id="11" value="POST /query" style="endArrow=block" edge="1" source="3" target="4" parent="1">
          <mxGeometry relative="1">
            <mxPoint x="260" y="140" as="targetPoint" />
          </mxGeometry>
        </mxCell>
        <mxCell id="12" value="getRelevantChunks()" style="endArrow=block" edge="1" source="4" target="5" parent="1">
          <mxGeometry relative="1">
            <mxPoint x="380" y="180" as="targetPoint" />
          </mxGeometry>
        </mxCell>
        <mxCell id="13" value="chunks[]" style="endArrow=block" edge="1" source="5" target="4" parent="1">
          <mxGeometry relative="1">
            <mxPoint x="260" y="220" as="targetPoint" />
          </mxGeometry>
        </mxCell>
        <mxCell id="14" value="POST /generate" style="endArrow=block" edge="1" source="4" target="6" parent="1">
          <mxGeometry relative="1">
            <mxPoint x="500" y="260" as="targetPoint" />
          </mxGeometry>
        </mxCell>
        <mxCell id="15" value="LLM response" style="endArrow=block" edge="1" source="6" target="4" parent="1">
          <mxGeometry relative="1">
            <mxPoint x="260" y="300" as="targetPoint" />
          </mxGeometry>
        </mxCell>
        <mxCell id="16" value="Return response" style="endArrow=block" edge="1" source="4" target="3" parent="1">
          <mxGeometry relative="1">
            <mxPoint x="140" y="340" as="targetPoint" />
          </mxGeometry>
        </mxCell>
        <mxCell id="17" value="Display answer" style="endArrow=block" edge="1" source="3" target="7" parent="1">
          <mxGeometry relative="1">
            <mxPoint x="620" y="380" as="targetPoint" />
          </mxGeometry>
        </mxCell>
      </root>
    </mxGraphModel>
  </diagram>
</mxfile>
